<svg width="123" height="35" viewBox="0 0 123 35" fill="none" xmlns="http://www.w3.org/2000/svg">
<path d="M40.2642 25V10.4545H50.0653V12.9901H43.3395V16.456H49.5611V18.9915H43.3395V22.4645H50.0938V25H40.2642ZM61.5802 17.2017L58.8103 17.3722C58.763 17.1354 58.6612 16.9223 58.5049 16.733C58.3487 16.5388 58.1427 16.3849 57.887 16.2713C57.6361 16.1529 57.3354 16.0938 56.985 16.0938C56.5163 16.0938 56.1209 16.1932 55.7989 16.392C55.477 16.5862 55.316 16.8466 55.316 17.1733C55.316 17.4337 55.4201 17.6539 55.6285 17.8338C55.8368 18.0137 56.1943 18.1581 56.7009 18.267L58.6754 18.6648C59.736 18.8826 60.5267 19.233 61.0475 19.7159C61.5683 20.1989 61.8288 20.8333 61.8288 21.6193C61.8288 22.3343 61.6181 22.9616 61.1967 23.5014C60.78 24.0412 60.2071 24.4626 59.4779 24.7656C58.7535 25.0639 57.9178 25.2131 56.9708 25.2131C55.5267 25.2131 54.3761 24.9124 53.5191 24.3111C52.6668 23.705 52.1673 22.8812 52.0205 21.8395L54.9964 21.6832C55.0863 22.1236 55.3041 22.4598 55.6498 22.6918C55.9954 22.919 56.4381 23.0327 56.9779 23.0327C57.5082 23.0327 57.9344 22.9309 58.2563 22.7273C58.583 22.5189 58.7487 22.2514 58.7535 21.9247C58.7487 21.6501 58.6327 21.4252 58.4055 21.25C58.1782 21.0701 57.8278 20.9328 57.3543 20.8381L55.4651 20.4616C54.3998 20.2486 53.6067 19.8793 53.0859 19.3537C52.5698 18.8281 52.3117 18.1581 52.3117 17.3438C52.3117 16.643 52.5011 16.0393 52.8799 15.5327C53.2634 15.026 53.8008 14.6354 54.4921 14.3608C55.1881 14.0862 56.0025 13.9489 56.9353 13.9489C58.3131 13.9489 59.3974 14.2401 60.1881 14.8224C60.9836 15.4048 61.4476 16.1979 61.5802 17.2017ZM69.5865 14.0909V16.3636H63.0169V14.0909H69.5865ZM64.5084 11.4773H67.5339V21.6477C67.5339 21.9271 67.5766 22.1449 67.6618 22.3011C67.747 22.4527 67.8654 22.5592 68.0169 22.6207C68.1732 22.6823 68.3531 22.7131 68.5567 22.7131C68.6987 22.7131 68.8408 22.7012 68.9828 22.6776C69.1249 22.6491 69.2338 22.6278 69.3095 22.6136L69.7854 24.8651C69.6339 24.9124 69.4208 24.9669 69.1462 25.0284C68.8715 25.0947 68.5377 25.1349 68.1447 25.1491C67.4156 25.1776 66.7764 25.0805 66.2271 24.858C65.6826 24.6354 65.2589 24.2898 64.9558 23.821C64.6528 23.3523 64.5036 22.7604 64.5084 22.0455V11.4773ZM74.7182 25.206C74.0222 25.206 73.4019 25.0852 72.8574 24.8438C72.3129 24.5975 71.882 24.2353 71.5648 23.7571C71.2523 23.2741 71.096 22.6728 71.096 21.9531C71.096 21.3471 71.2073 20.8381 71.4298 20.4261C71.6524 20.0142 71.9554 19.6828 72.3389 19.4318C72.7224 19.1809 73.158 18.9915 73.6457 18.8636C74.1382 18.7358 74.6543 18.6458 75.194 18.5938C75.8285 18.5275 76.3399 18.4659 76.7281 18.4091C77.1164 18.3475 77.3981 18.2576 77.5733 18.1392C77.7485 18.0208 77.8361 17.8456 77.8361 17.6136V17.571C77.8361 17.1212 77.694 16.7732 77.4099 16.527C77.1306 16.2808 76.7329 16.1577 76.2168 16.1577C75.6723 16.1577 75.239 16.2784 74.917 16.5199C74.5951 16.7566 74.382 17.0549 74.2778 17.4148L71.4795 17.1875C71.6216 16.5246 71.9009 15.9517 72.3176 15.4688C72.7343 14.9811 73.2717 14.607 73.9298 14.3466C74.5927 14.0814 75.3598 13.9489 76.231 13.9489C76.837 13.9489 77.417 14.0199 77.971 14.1619C78.5297 14.304 79.0245 14.5241 79.4554 14.8224C79.891 15.1207 80.2343 15.5043 80.4852 15.973C80.7362 16.437 80.8616 16.9934 80.8616 17.642V25H77.9923V23.4872H77.9071C77.7319 23.8281 77.4975 24.1288 77.204 24.3892C76.9104 24.6449 76.5577 24.8461 76.1457 24.9929C75.7338 25.1349 75.258 25.206 74.7182 25.206ZM75.5847 23.1179C76.0297 23.1179 76.4227 23.0303 76.7636 22.8551C77.1045 22.6752 77.3721 22.4337 77.5662 22.1307C77.7603 21.8277 77.8574 21.4844 77.8574 21.1009V19.9432C77.7627 20.0047 77.6325 20.0616 77.4668 20.1136C77.3058 20.161 77.1235 20.206 76.9199 20.2486C76.7163 20.2865 76.5127 20.322 76.3091 20.3551C76.1055 20.3835 75.9208 20.4096 75.7551 20.4332C75.4 20.4853 75.0899 20.5682 74.8247 20.6818C74.5596 20.7955 74.3536 20.9493 74.2068 21.1435C74.06 21.3329 73.9866 21.5696 73.9866 21.8537C73.9866 22.2656 74.1358 22.5805 74.4341 22.7983C74.7371 23.0114 75.1206 23.1179 75.5847 23.1179ZM89.0615 14.0909V16.3636H82.4919V14.0909H89.0615ZM83.9834 11.4773H87.0089V21.6477C87.0089 21.9271 87.0516 22.1449 87.1368 22.3011C87.222 22.4527 87.3404 22.5592 87.4919 22.6207C87.6482 22.6823 87.8281 22.7131 88.0317 22.7131C88.1737 22.7131 88.3158 22.7012 88.4578 22.6776C88.5999 22.6491 88.7088 22.6278 88.7845 22.6136L89.2604 24.8651C89.1089 24.9124 88.8958 24.9669 88.6212 25.0284C88.3465 25.0947 88.0127 25.1349 87.6197 25.1491C86.8906 25.1776 86.2514 25.0805 85.7021 24.858C85.1576 24.6354 84.7339 24.2898 84.4308 23.821C84.1278 23.3523 83.9786 22.7604 83.9834 22.0455V11.4773ZM95.9368 25.2131C94.8146 25.2131 93.8487 24.9858 93.0391 24.5312C92.2341 24.072 91.6139 23.4233 91.1783 22.5852C90.7427 21.7424 90.5249 20.7457 90.5249 19.5952C90.5249 18.473 90.7427 17.4882 91.1783 16.6406C91.6139 15.7931 92.227 15.1326 93.0178 14.6591C93.8132 14.1856 94.746 13.9489 95.8161 13.9489C96.5357 13.9489 97.2057 14.0649 97.826 14.2969C98.451 14.5241 98.9955 14.8674 99.4595 15.3267C99.9283 15.786 100.293 16.3636 100.553 17.0597C100.814 17.7509 100.944 18.5606 100.944 19.4886V20.3196H91.7322V18.4446H98.0959C98.0959 18.009 98.0012 17.6231 97.8118 17.2869C97.6224 16.9508 97.3596 16.688 97.0234 16.4986C96.692 16.3045 96.3061 16.2074 95.8658 16.2074C95.4065 16.2074 94.9993 16.3139 94.6442 16.527C94.2938 16.7353 94.0192 17.017 93.8203 17.3722C93.6214 17.7225 93.5196 18.1132 93.5149 18.544V20.3267C93.5149 20.8665 93.6143 21.3329 93.8132 21.7259C94.0168 22.1188 94.3033 22.4219 94.6726 22.6349C95.0419 22.848 95.4799 22.9545 95.9865 22.9545C96.3227 22.9545 96.6304 22.9072 96.9098 22.8125C97.1892 22.7178 97.4283 22.5758 97.6271 22.3864C97.826 22.197 97.9775 21.965 98.0817 21.6903L100.88 21.875C100.738 22.5473 100.447 23.1345 100.006 23.6364C99.5708 24.1335 99.0073 24.5218 98.3161 24.8011C97.6295 25.0758 96.8364 25.2131 95.9368 25.2131ZM102.968 25V14.0909H105.902V15.9943H106.015C106.214 15.3172 106.548 14.8059 107.017 14.4602C107.485 14.1098 108.025 13.9347 108.636 13.9347C108.787 13.9347 108.951 13.9441 109.126 13.9631C109.301 13.982 109.455 14.008 109.588 14.0412V16.7259C109.446 16.6832 109.249 16.6454 108.998 16.6122C108.747 16.5791 108.518 16.5625 108.309 16.5625C107.864 16.5625 107.466 16.6596 107.116 16.8537C106.77 17.0431 106.496 17.3082 106.292 17.6491C106.093 17.9901 105.994 18.383 105.994 18.8281V25H102.968ZM113.402 29.0909C113.018 29.0909 112.658 29.0601 112.322 28.9986C111.991 28.9418 111.716 28.8684 111.498 28.7784L112.18 26.5199C112.535 26.6288 112.855 26.688 113.139 26.6974C113.428 26.7069 113.676 26.6406 113.885 26.4986C114.098 26.3565 114.271 26.1151 114.403 25.7741L114.581 25.3125L110.667 14.0909H113.849L116.108 22.1023H116.221L118.501 14.0909H121.704L117.464 26.179C117.261 26.7661 116.984 27.2775 116.633 27.7131C116.288 28.1534 115.85 28.492 115.319 28.7287C114.789 28.9702 114.15 29.0909 113.402 29.0909Z" fill="black"/>
<path d="M29.75 29.1667C29.75 29.5534 29.6007 29.9244 29.3351 30.1979C29.0694 30.4713 28.7091 30.625 28.3333 30.625H5.66667C5.29094 30.625 4.93061 30.4713 4.66493 30.1979C4.39926 29.9244 4.25 29.5534 4.25 29.1667V13.5829C4.24991 13.3626 4.29831 13.1452 4.39154 12.9469C4.48478 12.7486 4.62044 12.5747 4.78833 12.4381L16.1217 3.23458C16.3718 3.03113 16.6812 2.92046 17 2.92046C17.3188 2.92046 17.6282 3.03113 17.8783 3.23458L29.2117 12.4367C29.3797 12.5734 29.5155 12.7476 29.6088 12.9461C29.702 13.1447 29.7503 13.3624 29.75 13.5829V29.1667V29.1667ZM9.91667 17.5C9.91667 19.4339 10.6629 21.2885 11.9913 22.656C13.3197 24.0234 15.1214 24.7917 17 24.7917C18.8786 24.7917 20.6803 24.0234 22.0087 22.656C23.3371 21.2885 24.0833 19.4339 24.0833 17.5H21.25C21.25 18.6603 20.8022 19.7731 20.0052 20.5936C19.2082 21.4141 18.1272 21.875 17 21.875C15.8728 21.875 14.7918 21.4141 13.9948 20.5936C13.1978 19.7731 12.75 18.6603 12.75 17.5H9.91667Z" fill="#7166F0"/>
</svg>
